<svg id="visual" viewBox="0 0 900 600" width="900" height="600" xmlns="http://www.w3.org/2000/svg" xmlns:xlink="http://www.w3.org/1999/xlink" version="1.1"><rect x="0" y="0" width="900" height="600" fill="#001220"></rect><path d="M0 424L30 429.7C60 435.3 120 446.7 180 444.8C240 443 300 428 360 423.2C420 418.3 480 423.7 540 429.5C600 435.3 660 441.7 720 447.2C780 452.7 840 457.3 870 459.7L900 462L900 601L870 601C840 601 780 601 720 601C660 601 600 601 540 601C480 601 420 601 360 601C300 601 240 601 180 601C120 601 60 601 30 601L0 601Z" fill="#fa7268"></path><path d="M0 442L30 450.5C60 459 120 476 180 481.8C240 487.7 300 482.3 360 478C420 473.7 480 470.3 540 470.8C600 471.3 660 475.7 720 472.5C780 469.3 840 458.7 870 453.3L900 448L900 601L870 601C840 601 780 601 720 601C660 601 600 601 540 601C480 601 420 601 360 601C300 601 240 601 180 601C120 601 60 601 30 601L0 601Z" fill="#ef5f67"></path><path d="M0 518L30 515C60 512 120 506 180 501.8C240 497.7 300 495.3 360 496.7C420 498 480 503 540 504.2C600 505.3 660 502.7 720 504.3C780 506 840 512 870 515L900 518L900 601L870 601C840 601 780 601 720 601C660 601 600 601 540 601C480 601 420 601 360 601C300 601 240 601 180 601C120 601 60 601 30 601L0 601Z" fill="#e34c67"></path><path d="M0 549L30 548.2C60 547.3 120 545.7 180 544.7C240 543.7 300 543.3 360 540C420 536.7 480 530.3 540 531C600 531.7 660 539.3 720 540.5C780 541.7 840 536.3 870 533.7L900 531L900 601L870 601C840 601 780 601 720 601C660 601 600 601 540 601C480 601 420 601 360 601C300 601 240 601 180 601C120 601 60 601 30 601L0 601Z" fill="#d53867"></path><path d="M0 546L30 549.8C60 553.7 120 561.3 180 565C240 568.7 300 568.3 360 566.5C420 564.7 480 561.3 540 559.3C600 557.3 660 556.7 720 555C780 553.3 840 550.7 870 549.3L900 548L900 601L870 601C840 601 780 601 720 601C660 601 600 601 540 601C480 601 420 601 360 601C300 601 240 601 180 601C120 601 60 601 30 601L0 601Z" fill="#c62368"></path></svg>