<?xml version="1.0" encoding="UTF-8"?>
<svg id="Layer_1" data-name="Layer 1" xmlns="http://www.w3.org/2000/svg" xmlns:xlink="http://www.w3.org/1999/xlink" viewBox="0 0 1221.22 1221.22">
  <defs>
    <style>
      .cls-1 {
        fill: #003d48;
      }

      .cls-1, .cls-2, .cls-3, .cls-4, .cls-5, .cls-6, .cls-7 {
        stroke: #000;
        stroke-miterlimit: 10;
      }

      .cls-1, .cls-2, .cls-3, .cls-4, .cls-6, .cls-7 {
        stroke-width: 5px;
      }

      .cls-2 {
        fill: #ffe8a3;
      }

      .cls-3, .cls-8 {
        fill: #ffb60d;
      }

      .cls-4 {
        fill: #fff;
      }

      .cls-5 {
        stroke-width: 3px;
      }

      .cls-5, .cls-7 {
        fill: none;
      }

      .cls-6 {
        fill: #39b54a;
      }

      .cls-9 {
        fill: url(#linear-gradient);
      }

      .cls-10 {
        font-size: 48px;
      }

      .cls-10, .cls-11, .cls-12 {
        font-family: HendersonSlabBasicSemiBold, 'Henderson Slab';
      }

      .cls-11 {
        font-size: 72px;
      }

      .cls-12 {
        font-size: 79.08px;
      }
    </style>
    <linearGradient id="linear-gradient" x1="609.24" y1="618.78" x2="609.24" y2="557.52" gradientUnits="userSpaceOnUse">
      <stop offset="0" stop-color="#e9dab8"/>
      <stop offset=".61" stop-color="#cf7e26"/>
      <stop offset="1" stop-color="#c75402"/>
    </linearGradient>
  </defs>
  <path class="cls-7" d="m610.61,2.5C274.76,2.5,2.5,274.76,2.5,610.61s272.26,608.11,608.11,608.11,608.11-272.26,608.11-608.11S946.46,2.5,610.61,2.5Zm156.59,900.39c-6.45,0-6.43-10,0-10s6.43,10,0,10Zm67.86-260.27c-5.66,4.04-11.43,7.93-17.31,11.65-17.5,11.11-35.96,20.85-55.21,29.06-46.65,19.94-98.01,30.96-151.93,30.96s-106.3-11.24-153.31-31.55c-18.76-8.09-36.75-17.62-53.83-28.47-5.33-3.37-10.56-6.88-15.71-10.51-20.72-14.61-39.95-31.2-57.4-49.51l3.52-6.1c26.72-27.31,57.44-50.68,91.23-69.15,33.44-18.29,69.87-31.78,108.37-39.56,24.92-5.05,50.72-7.69,77.13-7.69s52.21,2.64,77.13,7.69c38.5,7.78,74.93,21.27,108.37,39.56,33.79,18.47,64.51,41.84,91.23,69.15l3.52,6.1c-17,17.83-35.68,34.04-55.8,48.37Z"/>
  <path class="cls-7" d="m608.27,112.88c.78-.01,1.56-.01,2.34-.01s1.56,0,2.34.01"/>
  <path class="cls-7" d="m1042.87,857.53c-.26.47-.53.94-.8,1.4"/>
  <path class="cls-7" d="m179.15,858.93c-.27-.46-.54-.93-.8-1.4"/>
  <path class="cls-1" d="m612.95,112.88c-.78,0-1.56,0-2.34,0s-1.56,0-2.34,0c-273.81,1.26-495.4,223.62-495.4,497.73,0,89.86,23.81,174.15,65.48,246.92.26.47.53.94.8,1.4,85.98,149.08,247,249.42,431.46,249.42s345.48-100.34,431.46-249.42c.27-.46.54-.93.8-1.4,41.67-72.77,65.48-157.06,65.48-246.92,0-274.11-221.59-496.47-495.4-497.73Zm154.25,790.01,67.86-260.27c-5.66,4.04-11.43,7.93-17.31,11.65-17.5,11.11-35.96,20.85-55.21,29.06-46.65,19.94-98.01,30.96-151.93,30.96s-106.3-11.24-153.31-31.55c-18.76-8.09-36.75-17.62-53.83-28.47-5.33-3.37-10.56-6.88-15.71-10.51-20.72-14.61-39.95-31.2-57.4-49.51l3.52-6.1c26.72-27.31,57.44-50.68,91.23-69.15,33.44-18.29,69.87-31.78,108.37-39.56,24.92-5.05,50.72-7.69,77.13-7.69s52.21,2.64,77.13,7.69c38.5,7.78,74.93,21.27,108.37,39.56,33.79,18.47,64.51,41.84,91.23,69.15l3.52,6.1c-17,17.83-35.68,34.04-55.8,48.37Z"/>
  <polygon class="cls-8" points="609.24 412.14 640.58 113.65 634.26 413.71 702.76 121.51 658.89 418.41 763.47 137.1 682.73 426.16 821.75 160.17 705.42 436.83 876.67 190.37 726.58 450.27 927.38 227.21 745.9 466.25 973.07 270.12 763.07 484.53 1013.03 318.41 777.8 504.81 1046.61 371.33 789.88 526.78 1073.3 428.05 799.11 550.09 1092.67 487.66 805.34 574.37 1104.41 549.23 808.49 599.25 1108.35 611.78 808.49 624.32 1104.41 674.34 805.34 649.19 1092.67 735.91 799.11 673.48 1073.3 795.52 789.88 696.79 1046.61 852.23 777.8 718.76 1013.03 905.16 763.07 739.04 973.07 953.45 745.9 757.32 927.38 996.36 726.58 773.3 876.67 1033.2 705.42 786.74 821.75 1063.4 682.73 797.41 763.47 1086.47 658.89 805.16 702.76 1102.06 634.26 809.86 640.58 1109.91 609.24 811.43 577.9 1109.91 584.21 809.86 515.71 1102.06 559.59 805.16 455 1086.47 535.74 797.41 396.72 1063.4 513.06 786.74 341.8 1033.2 491.89 773.3 291.09 996.36 472.57 757.32 245.4 953.45 455.41 739.04 205.44 905.16 440.67 718.76 171.86 852.23 428.59 696.79 145.17 795.52 419.36 673.48 125.8 735.91 413.13 649.19 114.06 674.34 409.98 624.32 110.12 611.78 409.98 599.25 114.06 549.23 413.13 574.37 125.8 487.66 419.36 550.09 145.17 428.05 428.59 526.78 171.86 371.33 440.67 504.81 205.44 318.41 455.41 484.53 245.4 270.12 472.57 466.25 291.09 227.21 491.89 450.27 341.8 190.37 513.06 436.83 396.72 160.17 535.74 426.16 455 137.1 559.59 418.41 515.71 121.51 584.21 413.71 577.9 113.65 609.24 412.14"/>
  <path class="cls-4" d="m890.86,594.25c-17,17.83-35.68,34.04-55.8,48.37-5.66,4.04-11.43,7.93-17.31,11.65-17.5,11.11-35.96,20.85-55.21,29.06-46.65,19.94-98.01,30.96-151.93,30.96s-106.3-11.24-153.31-31.55c-18.76-8.09-36.75-17.62-53.83-28.47-5.33-3.37-10.56-6.88-15.71-10.51-20.72-14.61-39.95-31.2-57.4-49.51l3.52-6.1c26.72-27.31,57.44-50.68,91.23-69.15,33.44-18.29,69.87-31.78,108.37-39.56,24.92-5.05,50.72-7.69,77.13-7.69s52.21,2.64,77.13,7.69c38.5,7.78,74.93,21.27,108.37,39.56,33.79,18.47,64.51,41.84,91.23,69.15l3.52,6.1Z"/>
  <path class="cls-3" d="m647.82,173.27h-74.42l34.87-60.39c.78,0,1.56,0,2.34,0s1.56,0,2.34,0l34.87,60.39Z"/>
  <path class="cls-2" d="m887.34,588.15c-26.72-27.31-57.44-50.68-91.23-69.15-33.44-18.29-69.87-31.78-108.37-39.56-24.92-5.05-50.72-7.69-77.13-7.69s-52.21,2.64-77.13,7.69c-38.5,7.78-74.93,21.27-108.37,39.56-33.79,18.47-64.51,41.84-91.23,69.15l39.92-69.15,13.96-24.18,25.96-44.96,39.92-69.15,3.66-6.34,36.26-62.8,39.92-69.15,39.92-69.15h74.42l39.92,69.15,39.92,69.15,34.88,60.41,5.04,8.73,39.92,69.15,27.56,47.74,12.36,21.4,39.92,69.15Z"/>
  <path class="cls-2" d="m1042.87,857.53c-.26.47-.53.94-.8,1.4H179.15c-.27-.46-.54-.93-.8-1.4l39.26-68,39.92-69.14,38.18-66.12,34.65-60.02c17.45,18.31,36.68,34.9,57.4,49.51,5.15,3.63,10.38,7.14,15.71,10.51,17.08,10.85,35.07,20.38,53.83,28.47,47.01,20.31,98.85,31.55,153.31,31.55s105.28-11.02,151.93-30.96c19.25-8.21,37.71-17.95,55.21-29.06,5.88-3.72,11.65-7.61,17.31-11.65,20.12-14.33,38.8-30.54,55.8-48.37l34.65,60.02,38.18,66.12,18.21,31.54,21.71,37.6,39.26,68Z"/>
  <line class="cls-7" x1="890.87" y1="594.24" x2="890.86" y2="594.25"/>
  <line class="cls-7" x1="330.36" y1="594.25" x2="330.35" y2="594.24"/>
  <circle class="cls-6" cx="609.24" cy="591.49" r="119.74"/>
  <polygon points="609.24 531.62 616.75 471.99 616.74 532.09 631.67 473.87 624.12 533.5 646.24 477.61 631.27 535.82 660.22 483.15 638.08 539.02 673.39 490.39 644.43 543.05 685.56 499.23 650.22 547.85 696.52 509.52 655.36 553.33 706.1 521.11 659.78 559.41 714.16 533.8 663.41 566 720.56 547.41 666.17 572.99 725.21 561.71 668.04 580.27 728.03 576.48 668.99 587.73 728.97 591.49 668.99 595.25 728.03 606.49 668.04 602.71 725.21 621.26 666.17 609.99 720.56 635.57 663.41 616.98 714.16 649.17 659.78 623.57 706.1 661.87 655.36 629.65 696.52 673.45 650.22 635.13 685.56 683.75 644.43 639.92 673.39 692.58 638.08 643.95 660.22 699.83 631.27 647.15 646.24 705.36 624.12 649.47 631.67 709.1 616.74 650.88 616.75 710.99 609.24 651.36 601.72 710.99 601.73 650.88 586.8 709.1 594.35 649.47 572.23 705.36 587.2 647.15 558.25 699.83 580.39 643.95 545.08 692.58 574.05 639.92 532.91 683.75 568.25 635.13 521.95 673.45 563.11 629.65 512.37 661.87 558.69 623.57 504.31 649.17 555.06 616.98 497.91 635.57 552.3 609.99 493.26 621.26 550.43 602.71 490.44 606.49 549.49 595.25 489.5 591.49 549.49 587.73 490.44 576.48 550.43 580.27 493.26 561.71 552.3 572.99 497.91 547.41 555.06 566 504.31 533.8 558.69 559.41 512.37 521.11 563.11 553.33 521.95 509.52 568.25 547.85 532.91 499.23 574.05 543.05 545.08 490.39 580.39 539.02 558.25 483.15 587.2 535.82 572.23 477.61 594.35 533.5 586.8 473.87 601.73 532.09 601.72 471.99 609.24 531.62"/>
  <path class="cls-9" d="m593.89,617.4c10.71,1.18,16.22,1.74,23.42,1.13,3.68-.31,8.6-.75,14.63-2.83,3.79-1.31,6.51-2.74,9.37-4.25,5.87-3.1,7.84-5.01,8.49-5.67,1-1.02,2.63-2.69,3.8-5.1.86-1.77,2-5,.59-13.89-1.16-7.31-1.74-10.96-3.8-14.17-3.61-5.62-9.11-7.81-15.81-10.49-4.06-1.62-13.25-5.18-25.76-4.53-4.78.25-14.97.89-25.46,7.37-10.05,6.2-14.61,14.21-15.81,16.44-2.21,4.12-4.98,9.29-3.51,15.3.94,3.86,3.18,6.21,6.44,9.64,2.07,2.17,7.76,7.99,16.98,10.2,1.08.26,2.88.46,6.44.85Z"/>
  <text class="cls-11" transform="translate(179.75 307.32) rotate(-51.33)"><tspan x="0" y="0">S</tspan></text>
  <text class="cls-11" transform="translate(218.2 258.66) rotate(-44.18)"><tspan x="0" y="0">K</tspan></text>
  <text class="cls-11" transform="translate(269.02 209.39) rotate(-36.84)"><tspan x="0" y="0">Y</tspan></text>
  <text class="cls-11" transform="translate(319.14 171.53) rotate(-29.97)"><tspan x="0" y="0">G</tspan></text>
  <text class="cls-11" transform="translate(376.18 138.53) rotate(-22.77)"><tspan x="0" y="0">G</tspan></text>
  <text class="cls-11" transform="translate(436.85 112.93) rotate(-15.5)"><tspan x="0" y="0">E</tspan></text>
  <text class="cls-11" transform="translate(501.19 94.85) rotate(-7.97)"><tspan x="0" y="0">K</tspan></text>
  <text class="cls-11" transform="translate(571.39 85.3) rotate(-.93)"><tspan x="0" y="0">A</tspan></text>
  <text class="cls-11" transform="translate(636.84 84.32) rotate(6.41)"><tspan x="0" y="0">B</tspan></text>
  <text class="cls-11" transform="translate(701.09 92.22) rotate(11.62)"><tspan x="0" y="0">I</tspan></text>
  <text class="cls-11" transform="translate(732.14 97.56) rotate(17.23)"><tspan x="0" y="0">N</tspan></text>
  <text class="cls-11" transform="translate(799.53 118.48) rotate(24.75)"><tspan x="0" y="0">E</tspan></text>
  <text class="cls-11" transform="translate(860.22 146.66) rotate(31.59)"><tspan x="0" y="0">T</tspan></text>
  <text class="cls-11" transform="translate(910.11 177.26) rotate(37.95)"><tspan x="0" y="0">T</tspan></text>
  <text class="cls-11" transform="translate(956.43 212.96) rotate(44.73)"><tspan x="0" y="0">E</tspan></text>
  <text class="cls-11" transform="translate(1003.86 260.17) rotate(51.51)"><tspan x="0" y="0">T</tspan></text>
  <text class="cls-10" transform="translate(116.63 824.81) rotate(-111.92) scale(1.01 1)"><tspan x="0" y="0">S</tspan></text>
  <text class="cls-10" transform="translate(100.67 785.21) rotate(-107.21) scale(1.01 1)"><tspan x="0" y="0">C</tspan></text>
  <text class="cls-10" transform="translate(88.36 744.42) rotate(-103.66) scale(1.01 1)"><tspan x="0" y="0">I</tspan></text>
  <text class="cls-10" transform="translate(82.88 723.61) rotate(-99.94) scale(1.01 1)"><tspan x="0" y="0">E</tspan></text>
  <text class="cls-10" transform="translate(74.96 678.87) rotate(-94.8) scale(1.01 1)"><tspan x="0" y="0">N</tspan></text>
  <text class="cls-10" transform="translate(71.41 631) rotate(-90.94) scale(1.01 1)"><tspan x="0" y="0">T</tspan></text>
  <text class="cls-10" transform="translate(71.33 591.08) rotate(-86.68) scale(1.01 1)"><tspan x="0" y="0">I</tspan></text>
  <text class="cls-10" transform="translate(72.19 569.55) rotate(-83.05) scale(1.01 1)"><tspan x="0" y="0">A</tspan></text>
  <text class="cls-10" transform="translate(78.01 525.19) rotate(-79.71) scale(1.01 1)"><tspan x="0" y="0"> </tspan></text>
  <text class="cls-10" transform="translate(80.38 509.6) rotate(-76.31) scale(1.01 1)"><tspan x="0" y="0">E</tspan></text>
  <text class="cls-10" transform="translate(91.23 465.42) rotate(-71.58) scale(1.01 1)"><tspan x="0" y="0">T</tspan></text>
  <text class="cls-10" transform="translate(1102.89 395.38) rotate(67.96) scale(1.01 1)"><tspan x="0" y="0">F</tspan></text>
  <text class="cls-10" transform="translate(1118.9 434.68) rotate(72.81) scale(1.01 1)"><tspan x="0" y="0">R</tspan></text>
  <text class="cls-10" transform="translate(1132.31 477.99) rotate(77.79) scale(1.01 1)"><tspan x="0" y="0">A</tspan></text>
  <text class="cls-10" transform="translate(1141.05 518.1) rotate(82.06) scale(1.01 1)"><tspan x="0" y="0">T</tspan></text>
  <text class="cls-10" transform="translate(1146.69 557.45) rotate(86.73) scale(1.01 1)"><tspan x="0" y="0">E</tspan></text>
  <text class="cls-10" transform="translate(1149.3 602.76) rotate(91.64) scale(1.01 1)"><tspan x="0" y="0">R</tspan></text>
  <text class="cls-10" transform="translate(1148.1 648.09) rotate(96.73) scale(1.01 1)"><tspan x="0" y="0">N</tspan></text>
  <text class="cls-10" transform="translate(1142.04 695.76) rotate(100.57) scale(1.01 1)"><tspan x="0" y="0">I</tspan></text>
  <text class="cls-10" transform="translate(1138.47 716.99) rotate(104.23) scale(1.01 1)"><tspan x="0" y="0">A</tspan></text>
  <text class="cls-10" transform="translate(1128.44 756.79) rotate(108.51) scale(1.01 1)"><tspan x="0" y="0">T</tspan></text>
  <text class="cls-10" transform="translate(1115.54 794.54) rotate(111.91) scale(1.01 1)"><tspan x="0" y="0">I</tspan></text>
  <text class="cls-10" transform="translate(1107.83 814.62) rotate(115.45) scale(1.01 1)"><tspan x="0" y="0">S</tspan></text>
  <text class="cls-12" transform="translate(251.53 1070.23) rotate(34.1)"><tspan x="0" y="0">A</tspan></text>
  <text class="cls-12" transform="translate(317.16 1114.48) rotate(26.06)"><tspan x="0" y="0">N</tspan></text>
  <text class="cls-12" transform="translate(393.68 1151.48) rotate(17.7)"><tspan x="0" y="0">N</tspan></text>
  <text class="cls-12" transform="translate(473.68 1176.41) rotate(9.89)"><tspan x="0" y="0">O</tspan></text>
  <text class="cls-12" transform="translate(547.19 1188.13) rotate(4.64)"><tspan x="0" y="0">.</tspan></text>
  <text class="cls-12" transform="translate(579.17 1190.63) rotate(1.72)"><tspan x="0" y="0"> </tspan></text>
  <text class="cls-12" transform="translate(609.36 1192.94) rotate(-4.14)"><tspan x="0" y="0">M</tspan></text>
  <text class="cls-12" transform="translate(703.24 1185.71) rotate(-13.32)"><tspan x="0" y="0">M</tspan></text>
  <text class="cls-12" transform="translate(794.38 1163.32) rotate(-22.04)"><tspan x="0" y="0">X</tspan></text>
  <text class="cls-12" transform="translate(869.71 1131.43) rotate(-28.02)"><tspan x="0" y="0">I</tspan></text>
  <text class="cls-12" transform="translate(905.28 1113.52) rotate(-33.98)"><tspan x="0" y="0">X</tspan></text>
  <line class="cls-5" x1="1003.61" y1="789.53" x2="217.61" y2="789.53"/>
  <line class="cls-5" x1="963.69" y1="720.39" x2="257.53" y2="720.39"/>
  <line class="cls-5" x1="925.51" y1="654.27" x2="817.75" y2="654.27"/>
  <line class="cls-5" x1="403.47" y1="654.27" x2="295.71" y2="654.27"/>
  <line class="cls-5" x1="847.42" y1="519" x2="796.11" y2="519"/>
  <line class="cls-5" x1="425.11" y1="519" x2="373.8" y2="519"/>
  <line class="cls-5" x1="807.5" y1="449.86" x2="413.72" y2="449.86"/>
  <line class="cls-5" x1="767.58" y1="380.71" x2="453.64" y2="380.71"/>
  <line class="cls-5" x1="727.66" y1="311.57" x2="493.56" y2="311.57"/>
  <line class="cls-5" x1="687.74" y1="242.42" x2="533.48" y2="242.42"/>
  <polyline class="cls-5" points="610.61 711.2 610.61 714.29 610.61 720.39"/>
  <line class="cls-5" x1="610.61" y1="471.77" x2="610.61" y2="471.75"/>
  <line class="cls-5" x1="610.61" y1="311.57" x2="610.61" y2="242.42"/>
  <line class="cls-5" x1="610.61" y1="449.86" x2="610.61" y2="380.71"/>
  <line class="cls-5" x1="610.61" y1="857.53" x2="610.61" y2="789.53"/>
  <line class="cls-5" x1="533.48" y1="380.71" x2="533.48" y2="311.57"/>
  <line class="cls-5" x1="533.48" y1="479.44" x2="533.48" y2="449.86"/>
  <line class="cls-5" x1="533.48" y1="789.53" x2="533.48" y2="720.39"/>
  <polyline class="cls-5" points="457.3 449.86 457.3 380.71 457.3 374.37"/>
  <line class="cls-5" x1="457.3" y1="720.39" x2="457.3" y2="682.74"/>
  <line class="cls-5" x1="457.3" y1="858.23" x2="457.3" y2="789.53"/>
  <line class="cls-5" x1="387.76" y1="654.27" x2="387.76" y2="643.76"/>
  <line class="cls-5" x1="387.76" y1="519" x2="387.76" y2="494.82"/>
  <line class="cls-5" x1="387.76" y1="789.53" x2="387.76" y2="720.39"/>
  <line class="cls-5" x1="314.09" y1="720.39" x2="314.09" y2="654.27"/>
  <line class="cls-5" x1="314.09" y1="858.23" x2="314.09" y2="789.53"/>
  <line class="cls-5" x1="249.96" y1="789.53" x2="249.96" y2="733.5"/>
  <line class="cls-5" x1="687.74" y1="380.71" x2="687.74" y2="311.57"/>
  <line class="cls-5" x1="687.74" y1="479.44" x2="687.74" y2="449.86"/>
  <line class="cls-5" x1="687.74" y1="789.53" x2="687.74" y2="720.39"/>
  <polyline class="cls-5" points="762.54 449.86 762.54 380.71 762.54 371.98"/>
  <line class="cls-5" x1="762.54" y1="720.39" x2="762.54" y2="683.33"/>
  <line class="cls-5" x1="762.54" y1="858.23" x2="762.54" y2="789.53"/>
  <line class="cls-5" x1="835.06" y1="519" x2="835.06" y2="497.6"/>
  <line class="cls-5" x1="835.06" y1="789.53" x2="835.06" y2="720.39"/>
  <line class="cls-5" x1="835.06" y1="654.27" x2="835.06" y2="642.62"/>
  <line class="cls-5" x1="909.9" y1="720.39" x2="909.9" y2="654.27"/>
  <line class="cls-5" x1="909.9" y1="858.23" x2="909.9" y2="789.53"/>
  <line class="cls-5" x1="981.9" y1="789.53" x2="981.9" y2="751.93"/>
  <line class="cls-7" x1="79.12" y1="314.89" x2="177.1" y2="365.87"/>
  <line class="cls-7" x1="1139.57" y1="310.68" x2="1042.54" y2="363.45"/>
  <line class="cls-7" x1="92.69" y1="929.45" x2="186.97" y2="872.02"/>
  <line class="cls-7" x1="1132.86" y1="924.33" x2="1034.99" y2="873.26"/>
  <path d="m592.56,569.63c.39,1.33,1.9,2.04,3.17,2.24,1.4.23,2.85-.03,4.04-.8.54-.35.04-1.21-.5-.86-.94.6-2.08.86-3.19.71-.91-.12-2.27-.57-2.56-1.56-.18-.62-1.14-.35-.96.27h0Z"/>
  <path d="m608.36,568.48s.03-.05.05-.07l-.08.1c.04-.05.09-.1.14-.14l-.1.08c.07-.05.14-.09.22-.13l-.12.05c.09-.03.17-.06.26-.07l-.13.02c.1-.01.19-.01.29,0l-.13-.02c.08.01.17.03.24.07l-.12-.05c.07.03.13.06.19.11l-.1-.08s.08.07.12.11c.17.2.53.19.71,0,.19-.21.19-.5,0-.71-.28-.31-.74-.48-1.15-.44-.47.04-.89.26-1.15.66-.14.22-.05.56.18.68.25.13.53.06.68-.18h0Z"/>
  <path d="m618.35,564.68c1.12.96,2.56,1.36,4.01,1.14.27-.04.41-.38.35-.62-.08-.29-.35-.39-.62-.35.04,0,.03,0-.03,0-.04,0-.07,0-.11.01-.07,0-.15.01-.23.01-.15,0-.3,0-.45,0-.25-.02-.5-.06-.78-.15-.52-.15-1.03-.42-1.43-.76-.2-.18-.51-.2-.71,0-.18.18-.21.53,0,.71h0Z"/>
  <path d="m621.79,572c.48-.37.95-.6,1.52-.75.3-.08.48-.1.77-.12s.61,0,.84.04c.27.05.54-.07.62-.35.07-.24-.08-.57-.35-.62-1.36-.23-2.8.07-3.9.92-.21.16-.33.43-.18.68.12.21.47.35.68.18h0Z"/>
  <path d="m580.44,576.1c.94.49,2.01.73,3.06.64.26-.02.51-.21.5-.5-.01-.25-.22-.52-.5-.5-.23.02-.46.02-.69.01-.11,0-.23-.02-.34-.03-.06,0-.07,0-.01,0-.03,0-.06-.01-.1-.02-.06,0-.11-.02-.17-.03-.23-.05-.45-.11-.67-.18-.05-.02-.11-.04-.16-.06-.03-.01-.06-.02-.09-.04.04.02.04.02,0,0-.11-.05-.22-.1-.33-.16-.23-.12-.55-.07-.68.18-.12.23-.07.55.18.68h0Z"/>
  <path d="m634.41,570.58c.08-.05.17-.11.25-.15.04-.02.08-.04.12-.06.03-.01.14-.08.03-.02.15-.09.36-.13.53-.16.04,0,.1-.03.15-.03-.12,0-.02,0,.01,0,.1,0,.2-.01.3-.01.09,0,.17,0,.26.01.02,0,.05,0,.07,0-.07-.01-.08-.01-.02,0,.05,0,.1.02.15.03.26.05.55-.07.62-.35.06-.25-.08-.56-.35-.62-.9-.18-1.85-.02-2.61.48-.22.14-.33.45-.18.68.14.22.45.33.68.18h0Z"/>
  <path d="m616.27,576.51c.05,0,.11,0,.16,0l-.13-.02c.07,0,.13.03.19.05l-.12-.05c.06.02.11.06.16.09l-.1-.08s.06.05.08.07c.05.05.1.08.16.1.06.03.12.05.19.04.07,0,.13-.01.19-.04.06-.02.12-.05.16-.1.09-.1.15-.22.15-.35s-.05-.26-.15-.35c-.07-.07-.14-.13-.22-.18s-.17-.09-.26-.13c-.05-.02-.11-.03-.16-.04-.1-.01-.2-.03-.3-.02-.07,0-.13.01-.19.04-.06.02-.12.05-.16.1-.05.05-.08.1-.1.16-.03.06-.05.12-.04.19,0,.13.05.26.15.35.09.09.22.16.35.15h0Z"/>
  <path d="m604.08,576.48c.98.14,1.93,0,2.85-.38.24-.1.31-.48.18-.68-.16-.25-.43-.29-.68-.18.1-.04-.07.03-.08.03-.04.02-.08.03-.12.04-.1.03-.2.06-.3.09-.18.05-.37.09-.56.11.12-.02-.03,0-.04,0-.05,0-.1,0-.15.01-.1,0-.19,0-.29.01-.1,0-.21,0-.31,0-.04,0-.09,0-.13-.01-.02,0-.21-.02-.09,0-.14-.02-.26-.02-.39.05-.1.06-.2.18-.23.3-.05.24.07.58.35.62h0Z"/>
  <path d="m600.51,563.25c.17-.13.36-.25.55-.36.08-.05.17-.09.26-.13.02-.01.05-.02.08-.03-.06.02-.06.02,0,0,.05-.02.1-.04.15-.06.19-.07.39-.12.59-.16.05-.01.11-.02.16-.03.03,0,.05,0,.08-.01-.07,0-.07,0-.01,0,.11,0,.22-.02.33-.02.26,0,.51-.22.5-.5-.01-.26-.22-.51-.5-.5-.96.04-1.92.35-2.69.94-.11.08-.19.16-.23.3-.03.12-.02.28.05.39.13.21.46.35.68.18h0Z"/>
  <path d="m583.74,570.08c.71.02,1.42-.04,2.12-.16.12-.02.24-.13.3-.23.06-.11.09-.27.05-.39-.09-.28-.34-.4-.62-.35-.08.01-.17.03-.25.04-.02,0-.04,0-.06,0,.06,0,.07,0,.04,0-.04,0-.08,0-.12.01-.16.02-.32.03-.49.04-.33.02-.65.03-.98.02-.26,0-.51.23-.5.5s.22.49.5.5h0Z"/>
  <path d="m629.37,565.28h2.46c.26,0,.51-.23.5-.5s-.22-.5-.5-.5h-2.46c-.26,0-.51.23-.5.5s.22.5.5.5h0Z"/>
  <path d="m611.13,562.41c.1-.02.21-.04.31-.05l-.13.02c.44-.06.89-.06,1.33-.02.12.01.27-.07.35-.15.09-.09.15-.23.15-.35s-.05-.26-.15-.35c-.1-.09-.21-.13-.35-.15-.59-.06-1.19-.03-1.78.08-.26.05-.43.37-.35.62.09.27.34.4.62.35h0Z"/>
  <path d="m589.69,565.5c.56.2,1.18.29,1.77.25.13,0,.26-.05.35-.15.09-.09.15-.23.15-.35-.01-.25-.22-.52-.5-.5s-.55.01-.82-.02l.13.02c-.28-.04-.56-.11-.82-.2-.12-.04-.28-.01-.39.05s-.2.18-.23.3c-.06.28.09.52.35.62h0Z"/>
  <path d="m636.73,575.88c1.1-1.33,2.73-2.14,4.46-2.16.64,0,.64-1.01,0-1-1.97.02-3.91.93-5.17,2.45-.17.21-.2.5,0,.71.18.18.53.21.71,0h0Z"/>
</svg>